<?xml version="1.0" encoding="UTF-8" standalone="no"?><!DOCTYPE svg PUBLIC "-//W3C//DTD SVG 1.1//EN" "http://www.w3.org/Graphics/SVG/1.1/DTD/svg11.dtd"><svg width="100%" height="100%" viewBox="0 0 5500 2571" version="1.1" xmlns="http://www.w3.org/2000/svg" xmlns:xlink="http://www.w3.org/1999/xlink" xml:space="preserve" xmlns:serif="http://www.serif.com/" style="fill-rule:evenodd;clip-rule:evenodd;stroke-linejoin:round;stroke-miterlimit:2;"><g><path d="M4617,1744.792l-27.416,-976.296l3.416,0l207.333,976.296l224.417,0l212.417,-976.296l3.416,0l-30.833,976.296l287.834,0l0,-1245.279l-421.458,0l-161.042,735.55l-3.416,0l-155.875,-735.55l-424.875,0l0,1245.279l286.083,0l-0.001,0Zm-436.833,0.001l0,-249.055l-409.462,0l0,-268.983l376.896,0l0,-249.058l-376.896,0l0,-229.129l388.883,0l0,-249.054l-690.404,0l0,1245.279l710.983,0Zm-1670.367,-343.697c0.288,85.229 16.279,155.242 48.254,210.583c31.692,55.075 77.667,96.033 137.908,122.871c59.962,26.842 132.775,40.125 218.15,40.125c76.804,-0.271 141.333,-9.962 193.583,-28.779c52.254,-18.817 93.946,-45.104 125.067,-78.863c31.121,-33.762 53.675,-73.337 67.383,-118.717c13.704,-45.112 20.275,-94.092 19.987,-147.221l0,-901.583l-301.521,0l0,931.471c0,13.558 -1.425,27.117 -4.85,41.233c-3.425,13.838 -9.142,26.562 -16.846,38.463c-7.996,11.9 -18.563,21.304 -31.696,28.779c-13.421,7.196 -29.692,10.796 -49.396,11.075c-28.271,-0.279 -49.975,-5.538 -65.104,-15.5c-15.129,-10.238 -25.696,-23.521 -31.408,-40.4c-5.708,-16.608 -8.275,-35.15 -7.992,-55.35l0,-939.771l-301.521,0l0,901.583l0.002,0.001Z" style="fill:#fff;fill-rule:nonzero;"/><path d="M4792.375,1828.425l36.166,0l34.209,131.267l0.458,0l34.25,-131.267l36.125,0l0,165.587l-21.542,0l0,-144.717l-0.5,0l-37.792,144.717l-21.541,0l-37.792,-144.717l-0.5,0l0,144.717l-21.541,0l0,-165.587Zm-101.667,90.454l0,-6.733c0,-3.396 -0.334,-6.912 -0.917,-10.546c-0.667,-3.633 -1.792,-6.921 -3.459,-9.863c-1.625,-2.933 -3.875,-5.329 -6.667,-7.187c-2.834,-1.854 -6.417,-2.783 -10.75,-2.783c-5.167,0 -9.25,1.354 -12.334,4.058c-3.042,2.704 -5.333,5.842 -6.875,9.396c-1.583,3.554 -2.625,7.15 -3.042,10.783c-0.5,3.633 -0.708,6.379 -0.708,8.229l0,4.646l44.752,0Zm-45.5,15.296c0,4.796 0.125,9.975 0.375,15.546c0.25,5.567 1.125,10.746 2.667,15.538c1.583,4.792 3.959,8.775 7.209,11.942c3.166,3.171 7.833,4.754 13.917,4.754c4.708,0 8.458,-1.042 11.25,-3.129c2.792,-2.092 4.959,-4.633 6.417,-7.654c1.5,-3.012 2.5,-6.188 2.916,-9.508c0.5,-3.325 0.75,-6.146 0.75,-8.462l20.583,0c0,3.246 -0.625,7.375 -1.833,12.404c-1.167,5.021 -3.375,9.896 -6.542,14.608c-3.208,4.721 -7.583,8.742 -13.166,12.058c-5.584,3.329 -12.792,4.992 -21.542,4.992c-15.792,0 -27.167,-5.258 -34.125,-15.775c-6.917,-10.508 -10.375,-26.517 -10.375,-48.004c0,-7.733 0.5,-15.575 1.542,-23.538c1.042,-7.962 3.166,-15.15 6.458,-21.567c3.25,-6.417 7.917,-11.675 13.875,-15.771c6,-4.1 13.917,-6.15 23.834,-6.15c9.708,0 17.458,1.858 23.208,5.571c5.708,3.708 10.042,8.458 12.917,14.263c2.875,5.792 4.708,12.25 5.5,19.367c0.791,7.108 1.167,13.992 1.167,20.638l0,7.879l-67,0l-0.002,-0.002Zm-111.25,-2.317c0,7.425 0.375,14.15 1.083,20.183c0.708,6.029 1.917,11.129 3.667,15.304c1.708,4.171 4.083,7.421 7.083,9.738c3,2.317 6.792,3.483 11.375,3.483c5.375,0 9.792,-1.196 13.167,-3.596c3.375,-2.396 6,-5.763 7.833,-10.088c1.791,-4.329 3,-9.475 3.667,-15.429c0.625,-5.95 0.958,-12.483 0.958,-19.596c0,-6.029 -0.333,-11.942 -0.958,-17.742c-0.667,-5.796 -1.875,-11.013 -3.792,-15.646c-1.875,-4.646 -4.5,-8.358 -7.833,-11.137c-3.291,-2.783 -7.667,-4.171 -13.042,-4.171c-4.583,0 -8.375,1.158 -11.375,3.475c-3,2.317 -5.375,5.567 -7.083,9.742c-1.75,4.171 -2.959,9.279 -3.667,15.308c-0.709,6.021 -1.083,12.754 -1.083,20.171l0,0.001Zm67.708,62.154l-19.125,0l0,-15.304l-0.5,0c-0.625,2.317 -1.791,4.6 -3.458,6.842c-1.667,2.246 -3.75,4.217 -6.208,5.913c-2.5,1.7 -5.25,3.096 -8.25,4.175c-3.042,1.079 -6.333,1.625 -9.833,1.625c-7.667,0 -14.125,-1.583 -19.375,-4.754c-5.25,-3.167 -9.584,-7.612 -12.917,-13.337c-3.375,-5.721 -5.792,-12.596 -7.292,-20.638c-1.542,-8.038 -2.292,-16.929 -2.292,-26.675c0,-6.492 0.417,-13.567 1.208,-21.217c0.791,-7.654 2.583,-14.729 5.375,-21.221c2.791,-6.496 6.875,-11.942 12.208,-16.35c5.333,-4.408 12.542,-6.613 21.666,-6.613c5.75,0 11.292,1.55 16.75,4.642c5.417,3.092 9.25,7.346 11.458,12.754l0.5,0l0,-55.429l20.084,0l0,165.587l0.001,0Zm-189.5,-165.587l20.083,0l0,165.587l-20.083,0l0,-165.587Zm-110.542,78.858c0,-14.071 3.329,-24.396 10.042,-30.962c6.708,-6.575 17.708,-9.863 33,-9.863c9.75,0 17.25,1.237 22.5,3.713c5.25,2.475 9.125,5.567 11.625,9.275c2.458,3.717 3.875,7.617 4.291,11.717c0.417,4.096 0.583,7.763 0.583,11.013l0,69.342c0,2.633 0.25,4.95 0.75,6.963c0.458,2.008 2.292,3.008 5.5,3.008c1.25,0 2.25,-0.108 3,-0.346c0.708,-0.229 1.291,-0.504 1.75,-0.812l0,13.912c-0.791,0.158 -2.291,0.388 -4.542,0.704c-2.208,0.308 -4.625,0.462 -7.167,0.462c-1.917,0 -3.875,-0.075 -5.875,-0.233c-1.958,-0.158 -3.875,-0.733 -5.708,-1.746c-1.875,-1 -3.379,-2.583 -4.542,-4.75c-1.208,-2.162 -1.921,-5.258 -2.042,-9.279l-0.5,0c-3.167,5.575 -7.625,9.942 -13.292,13.108c-5.625,3.171 -11.5,4.754 -17.583,4.754c-11.958,0 -20.75,-3.25 -26.417,-9.746c-5.671,-6.492 -8.5,-15.308 -8.5,-26.438c0,-8.812 1.958,-16.121 5.875,-21.913c3.875,-5.8 9.996,-9.933 18.287,-12.408l27.046,-7.879c3.667,-1.092 6.5,-2.208 8.5,-3.367c1.996,-1.158 3.417,-2.438 4.292,-3.825c0.871,-1.396 1.412,-3.017 1.583,-4.871c0.125,-1.858 0.209,-4.1 0.209,-6.733c0,-12.208 -6.833,-18.317 -20.584,-18.317c-5.583,0 -9.833,1.046 -12.791,3.129c-2.963,2.088 -5.088,4.525 -6.459,7.308c-1.333,2.779 -2.167,5.525 -2.375,8.233c-0.25,2.708 -0.379,4.6 -0.379,5.679l0,1.167l-20.079,0l0.002,0.001Zm61.958,19.013c-1.875,1.85 -4.292,3.404 -7.208,4.633c-2.921,1.237 -6.004,2.363 -9.213,3.367c-3.287,1.008 -6.412,2.013 -9.496,3.021c-3.083,1 -5.708,2.196 -7.958,3.592c-3.125,2.013 -5.541,4.438 -7.208,7.3c-1.625,2.862 -2.458,7 -2.458,12.408c0,6.496 1.291,11.671 3.916,15.542c2.583,3.867 7.292,5.796 14.083,5.796c3.292,0 6.459,-0.617 9.542,-1.854c3.125,-1.237 5.829,-2.942 8.167,-5.104c2.412,-2.162 4.292,-4.675 5.708,-7.537c1.412,-2.862 2.125,-5.913 2.125,-9.158l-0,-32.006Zm-85.208,67.717l-19.125,0l0,-14.613l-0.458,0c-2.75,5.725 -7.042,10.129 -12.917,13.217c-5.917,3.1 -12,4.646 -18.208,4.646c-8.458,0 -14.958,-1.354 -19.5,-4.063c-4.542,-2.7 -7.917,-6.067 -10.042,-10.087c-2.166,-4.021 -3.417,-8.308 -3.708,-12.871c-0.333,-4.558 -0.5,-8.696 -0.5,-12.408l0,-88.129l20.125,0l0,85.813c0,2.317 0.083,4.95 0.333,7.883c0.25,2.938 1,5.683 2.292,8.233c1.25,2.558 3.125,4.675 5.625,6.379c2.458,1.704 6,2.554 10.625,2.554c2.708,0 5.541,-0.467 8.5,-1.396c2.958,-0.929 5.708,-2.396 8.25,-4.404c2.583,-2.013 4.625,-4.596 6.25,-7.775c1.583,-3.167 2.375,-6.992 2.375,-11.475l0,-85.813l20.084,0l0,124.308l-0.001,0.001Zm-178.488,-62.154c0,7.425 0.358,14.15 1.071,20.183c0.717,6.029 1.913,11.129 3.671,15.304c1.717,4.171 4.104,7.421 7.1,9.738c2.992,2.317 6.783,3.483 11.362,3.483c5.383,0 9.775,-1.196 13.167,-3.596c3.383,-2.396 6.017,-5.763 7.817,-10.088c1.829,-4.329 3.025,-9.475 3.667,-15.429c0.633,-5.95 0.963,-12.483 0.963,-19.596c0,-6.029 -0.329,-11.942 -0.963,-17.742c-0.642,-5.796 -1.879,-11.013 -3.792,-15.646c-1.867,-4.646 -4.504,-8.358 -7.812,-11.137c-3.312,-2.783 -7.662,-4.171 -13.046,-4.171c-4.579,0 -8.371,1.158 -11.362,3.475c-2.996,2.317 -5.383,5.567 -7.1,9.742c-1.758,4.171 -2.954,9.279 -3.671,15.308c-0.712,6.021 -1.071,12.754 -1.071,20.171l-0.001,0.001Zm67.737,62.154l-19.167,0l0,-15.304l-0.479,0c-0.633,2.317 -1.792,4.6 -3.467,6.842c-1.675,2.246 -3.75,4.217 -6.221,5.913c-2.471,1.7 -5.229,3.096 -8.254,4.175c-3.038,1.079 -6.304,1.625 -9.821,1.625c-7.65,0 -14.108,-1.583 -19.379,-4.754c-5.263,-3.167 -9.575,-7.612 -12.917,-13.337c-3.35,-5.721 -5.783,-12.596 -7.304,-20.638c-1.513,-8.038 -2.267,-16.929 -2.267,-26.675c0,-6.492 0.4,-13.567 1.196,-21.217c0.796,-7.654 2.592,-14.729 5.383,-21.221c2.788,-6.496 6.858,-11.942 12.2,-16.35c5.342,-4.408 12.567,-6.613 21.658,-6.613c5.742,0 11.325,1.55 16.746,4.642c5.425,3.092 9.258,7.346 11.492,12.754l0.471,0l0,-55.429l20.129,0l0,165.587l0.001,0Zm-193.846,-86.729c0,-14.071 3.35,-24.396 10.046,-30.962c6.7,-6.575 17.713,-9.863 33.021,-9.863c9.733,0 17.233,1.237 22.496,3.713c5.263,2.475 9.133,5.567 11.604,9.275c2.475,3.717 3.904,7.617 4.313,11.717c0.4,4.096 0.596,7.763 0.596,11.013l0,69.342c0,2.633 0.242,4.95 0.717,6.963c0.475,2.008 2.317,3.008 5.504,3.008c1.275,0 2.279,-0.108 2.992,-0.346c0.717,-0.229 1.317,-0.504 1.792,-0.812l0,13.912c-0.8,0.158 -2.312,0.388 -4.55,0.704c-2.225,0.308 -4.617,0.462 -7.171,0.462c-1.921,0 -3.871,-0.075 -5.866,-0.233c-1.992,-0.158 -3.908,-0.733 -5.742,-1.746c-1.838,-1 -3.35,-2.583 -4.546,-4.75c-1.196,-2.162 -1.879,-5.258 -2.033,-9.279l-0.479,0c-3.188,5.575 -7.621,9.942 -13.279,13.108c-5.663,3.171 -11.529,4.754 -17.588,4.754c-11.962,0 -20.779,-3.25 -26.441,-9.746c-5.667,-6.492 -8.5,-15.308 -8.5,-26.438c0,-8.812 1.954,-16.121 5.867,-21.913c3.913,-5.8 10.008,-9.933 18.308,-12.408l27.033,-7.879c3.671,-1.092 6.508,-2.208 8.5,-3.367c1.992,-1.158 3.425,-2.438 4.304,-3.825c0.875,-1.396 1.4,-3.017 1.562,-4.871c0.15,-1.858 0.233,-4.1 0.233,-6.733c0,-12.208 -6.858,-18.317 -20.579,-18.317c-5.583,0 -9.846,1.046 -12.8,3.129c-2.954,2.088 -5.108,4.525 -6.467,7.308c-1.35,2.779 -2.146,5.525 -2.392,8.233c-0.233,2.708 -0.358,4.6 -0.358,5.679l0,1.167l-20.096,0l-0.001,0.001Zm61.975,19.013c-1.879,1.85 -4.308,3.404 -7.221,4.633c-2.913,1.237 -5.979,2.363 -9.217,3.367c-3.271,1.008 -6.417,2.013 -9.492,3.021c-3.067,1 -5.7,2.196 -7.929,3.592c-3.154,2.013 -5.546,4.438 -7.221,7.3c-1.638,2.862 -2.475,7 -2.475,12.408c0,6.496 1.321,11.671 3.913,15.542c2.587,3.867 7.296,5.796 14.079,5.796c3.313,0 6.5,-0.617 9.567,-1.854c3.113,-1.237 5.821,-2.942 8.179,-5.104c2.392,-2.162 4.263,-4.675 5.7,-7.537c1.392,-2.862 2.117,-5.913 2.117,-9.158l0,-32.006Zm-114.858,-92.763l20.096,0l0,36.171l22.254,0l0,15.308l-22.254,0l0,79.779c0,4.95 0.883,8.508 2.637,10.667c1.746,2.167 5.263,3.25 10.525,3.25c2.237,0 3.992,-0.079 5.263,-0.229c1.275,-0.158 2.471,-0.308 3.592,-0.467l0,16c-1.275,0.308 -3.267,0.617 -5.983,0.933c-2.708,0.308 -6.142,0.462 -10.287,0.462c-5.263,0 -9.575,-0.504 -12.925,-1.512c-3.346,-1 -5.979,-2.546 -7.892,-4.633c-1.917,-2.092 -3.238,-4.675 -3.95,-7.775c-0.717,-3.088 -1.075,-6.642 -1.075,-10.663l0,-85.813l-18.667,0l0,-15.308l18.667,0l0,-36.171l-0.001,0.001Zm-48.338,72.583c0,-7.883 -1.317,-13.913 -3.942,-18.083c-2.637,-4.179 -7.621,-6.267 -14.958,-6.267c-1.596,0 -3.596,0.196 -5.983,0.583c-2.396,0.387 -4.671,1.196 -6.817,2.433c-2.158,1.237 -4.038,3.133 -5.629,5.683c-1.596,2.55 -2.392,5.992 -2.392,10.321c0,3.704 0.917,6.721 2.75,9.042c1.837,2.317 4.229,4.288 7.179,5.913c2.954,1.621 6.304,2.979 10.054,4.058c3.75,1.088 7.613,2.246 11.604,3.483c3.825,1.237 7.617,2.588 11.367,4.05c3.746,1.475 7.1,3.488 10.05,6.033c2.954,2.554 5.346,5.8 7.175,9.742c1.838,3.942 2.759,9.013 2.759,15.192c0,6.492 -1.042,12.175 -3.117,17.046c-2.075,4.867 -4.946,8.925 -8.617,12.171c-3.667,3.25 -8.05,5.683 -13.158,7.308c-5.108,1.625 -10.604,2.438 -16.508,2.438c-10.85,0 -19.262,-1.704 -25.246,-5.1c-5.979,-3.408 -10.371,-7.467 -13.158,-12.179c-2.792,-4.712 -4.425,-9.546 -4.908,-14.496c-0.479,-4.942 -0.713,-9.042 -0.713,-12.287l20.096,0c0,3.712 0.317,7.304 0.958,10.783c0.638,3.475 1.833,6.571 3.588,9.275c1.758,2.704 4.188,4.833 7.296,6.379c3.117,1.542 7.142,2.317 12.088,2.317c1.592,0 3.588,-0.229 5.983,-0.696c2.392,-0.462 4.746,-1.462 7.054,-3.017c2.317,-1.546 4.271,-3.633 5.862,-6.258c1.596,-2.625 2.392,-6.188 2.392,-10.667c0,-4.175 -0.912,-7.612 -2.75,-10.325c-1.829,-2.704 -4.229,-4.942 -7.183,-6.725c-2.942,-1.775 -6.292,-3.287 -10.042,-4.525c-3.75,-1.229 -7.542,-2.467 -11.371,-3.704c-3.821,-1.237 -7.654,-2.596 -11.484,-4.058c-3.833,-1.467 -7.217,-3.446 -10.167,-5.913c-2.954,-2.475 -5.342,-5.721 -7.183,-9.742c-1.829,-4.021 -2.746,-9.2 -2.746,-15.538c0,-5.725 1.071,-10.746 3.229,-15.079c2.154,-4.329 5.108,-7.921 8.846,-10.783c3.75,-2.862 8.1,-4.983 13.046,-6.379c4.946,-1.388 10.208,-2.088 15.796,-2.088c9.25,0 16.508,1.396 21.771,4.179c5.263,2.779 9.175,6.188 11.729,10.208c2.546,4.017 4.108,8.304 4.662,12.863c0.558,4.563 0.837,8.704 0.837,12.408l-20.1,0l0.001,0.001Zm-165.113,-77.692l88.304,0l0,18.087l-66.767,0l0,51.958l62.933,0l0,18.079l-62.933,0l0,59.375l69.638,0l0,18.088l-91.175,0l0,-165.587Zm-101.7,90.454l0,-6.733c0,-3.396 -0.317,-6.912 -0.908,-10.546c-0.646,-3.633 -1.8,-6.921 -3.433,-9.863c-1.638,-2.933 -3.871,-5.329 -6.662,-7.187c-2.829,-1.854 -6.417,-2.783 -10.767,-2.783c-5.179,0 -9.25,1.354 -12.325,4.058c-3.029,2.704 -5.342,5.842 -6.896,9.396c-1.562,3.554 -2.592,7.15 -3.033,10.783c-0.479,3.633 -0.717,6.379 -0.717,8.229l0,4.646l44.742,0l-0.001,0Zm-45.463,15.296c0,4.796 0.121,9.975 0.367,15.546c0.233,5.567 1.112,10.746 2.666,15.538c1.596,4.792 3.954,8.775 7.179,11.942c3.192,3.171 7.858,4.754 13.917,4.754c4.708,0 8.458,-1.042 11.25,-3.129c2.829,-2.092 4.988,-4.633 6.458,-7.654c1.479,-3.012 2.471,-6.188 2.908,-9.508c0.483,-3.325 0.717,-6.146 0.717,-8.462l20.587,0c0,3.246 -0.6,7.375 -1.8,12.404c-1.196,5.021 -3.387,9.896 -6.579,14.608c-3.188,4.721 -7.579,8.742 -13.158,12.058c-5.588,3.329 -12.762,4.992 -21.538,4.992c-15.796,0 -27.158,-5.258 -34.104,-15.775c-6.937,-10.508 -10.4,-26.517 -10.4,-48.004c0,-7.733 0.512,-15.575 1.554,-23.538c1.033,-7.962 3.188,-15.15 6.458,-21.567c3.267,-6.417 7.896,-11.675 13.883,-15.771c5.975,-4.1 13.912,-6.15 23.804,-6.15c9.729,0 17.471,1.858 23.213,5.571c5.742,3.708 10.054,8.458 12.925,14.263c2.871,5.792 4.7,12.25 5.496,19.367c0.796,7.108 1.196,13.992 1.196,20.638l0,7.879l-67,0l0.001,-0.002Zm-111.267,-2.317c0,7.425 0.363,14.15 1.075,20.183c0.717,6.029 1.913,11.129 3.667,15.304c1.721,4.171 4.108,7.421 7.104,9.738c2.992,2.317 6.779,3.483 11.362,3.483c5.383,0 9.775,-1.196 13.167,-3.596c3.383,-2.396 6.017,-5.763 7.817,-10.088c1.829,-4.329 3.025,-9.475 3.667,-15.429c0.633,-5.95 0.958,-12.483 0.958,-19.596c0,-6.029 -0.325,-11.942 -0.958,-17.742c-0.642,-5.796 -1.879,-11.013 -3.792,-15.646c-1.867,-4.646 -4.504,-8.358 -7.812,-11.137c-3.313,-2.783 -7.663,-4.171 -13.046,-4.171c-4.583,0 -8.371,1.158 -11.362,3.475c-2.996,2.317 -5.383,5.567 -7.104,9.742c-1.754,4.171 -2.95,9.279 -3.667,15.308c-0.712,6.021 -1.075,12.754 -1.075,20.171l-0.001,0.001Zm67.722,62.154l-19.147,0l0,-15.304l-0.483,0c-0.629,2.317 -1.788,4.6 -3.463,6.842c-1.675,2.246 -3.75,4.217 -6.221,5.913c-2.475,1.7 -5.229,3.096 -8.254,4.175c-3.038,1.079 -6.308,1.625 -9.821,1.625c-7.65,0 -14.108,-1.583 -19.379,-4.754c-5.263,-3.167 -9.575,-7.612 -12.917,-13.337c-3.35,-5.721 -5.783,-12.596 -7.304,-20.638c-1.513,-8.038 -2.267,-16.929 -2.267,-26.675c0,-6.492 0.396,-13.567 1.192,-21.217c0.8,-7.654 2.596,-14.729 5.387,-21.221c2.788,-6.496 6.854,-11.942 12.196,-16.35c5.346,-4.408 12.571,-6.613 21.663,-6.613c5.742,0 11.321,1.55 16.746,4.642c5.425,3.092 9.254,7.346 11.492,12.754l0.471,0l0,-55.429l20.109,0l0,165.587Zm-193.826,-86.729c0,-14.071 3.35,-24.396 10.042,-30.962c6.704,-6.575 17.717,-9.863 33.025,-9.863c9.733,0 17.233,1.237 22.496,3.713c5.263,2.475 9.133,5.567 11.604,9.275c2.475,3.717 3.904,7.617 4.313,11.717c0.4,4.096 0.592,7.763 0.592,11.013l0,69.342c0,2.633 0.246,4.95 0.717,6.963c0.479,2.008 2.317,3.008 5.504,3.008c1.279,0 2.279,-0.108 2.996,-0.346c0.717,-0.229 1.317,-0.504 1.792,-0.812l0,13.912c-0.8,0.158 -2.312,0.388 -4.55,0.704c-2.225,0.308 -4.621,0.462 -7.175,0.462c-1.917,0 -3.871,-0.075 -5.862,-0.233c-1.992,-0.158 -3.908,-0.733 -5.742,-1.746c-1.838,-1 -3.35,-2.583 -4.546,-4.75c-1.196,-2.162 -1.879,-5.258 -2.033,-9.279l-0.479,0c-3.192,5.575 -7.621,9.942 -13.283,13.108c-5.658,3.171 -11.525,4.754 -17.583,4.754c-11.967,0 -20.779,-3.25 -26.442,-9.746c-5.667,-6.492 -8.5,-15.308 -8.5,-26.438c0,-8.812 1.954,-16.121 5.867,-21.913c3.913,-5.8 10.008,-9.933 18.308,-12.408l27.033,-7.879c3.667,-1.092 6.508,-2.208 8.496,-3.367c1.996,-1.158 3.425,-2.438 4.304,-3.825c0.879,-1.396 1.4,-3.017 1.562,-4.871c0.154,-1.858 0.238,-4.1 0.238,-6.733c0,-12.208 -6.858,-18.317 -20.579,-18.317c-5.588,0 -9.85,1.046 -12.8,3.129c-2.954,2.088 -5.108,4.525 -6.467,7.308c-1.35,2.779 -2.15,5.525 -2.392,8.233c-0.233,2.708 -0.358,4.6 -0.358,5.679l0,1.167l-20.096,0l-0.002,0.001Zm61.975,19.013c-1.879,1.85 -4.312,3.404 -7.225,4.633c-2.908,1.237 -5.975,2.363 -9.212,3.367c-3.271,1.008 -6.417,2.013 -9.491,3.021c-3.067,1 -5.7,2.196 -7.929,3.592c-3.158,2.013 -5.546,4.438 -7.221,7.3c-1.638,2.862 -2.475,7 -2.475,12.408c0,6.496 1.317,11.671 3.913,15.542c2.587,3.867 7.296,5.796 14.079,5.796c3.308,0 6.5,-0.617 9.567,-1.854c3.113,-1.237 5.821,-2.942 8.179,-5.104c2.392,-2.162 4.263,-4.675 5.7,-7.537c1.392,-2.862 2.117,-5.913 2.117,-9.158l0,-32.004l-0.002,-0.002Zm-152.908,5.562c0,7.425 0.358,14.15 1.075,20.183c0.717,6.029 1.913,11.129 3.671,15.304c1.712,4.171 4.104,7.421 7.1,9.738c2.992,2.317 6.783,3.483 11.358,3.483c5.387,0 9.779,-1.196 13.171,-3.596c3.383,-2.396 6.017,-5.763 7.817,-10.088c1.829,-4.329 3.025,-9.475 3.667,-15.429c0.633,-5.95 0.963,-12.483 0.963,-19.596c0,-6.029 -0.329,-11.942 -0.963,-17.742c-0.642,-5.796 -1.879,-11.013 -3.787,-15.646c-1.875,-4.646 -4.508,-8.358 -7.821,-11.137c-3.308,-2.783 -7.658,-4.171 -13.046,-4.171c-4.575,0 -8.367,1.158 -11.358,3.475c-2.996,2.317 -5.388,5.567 -7.1,9.742c-1.758,4.171 -2.954,9.279 -3.671,15.308c-0.717,6.021 -1.075,12.754 -1.075,20.171l-0.001,0.001Zm67.717,62.154l-19.142,0l0,-15.304l-0.479,0c-0.638,2.317 -1.792,4.6 -3.467,6.842c-1.675,2.246 -3.75,4.217 -6.221,5.913c-2.471,1.7 -5.229,3.096 -8.258,4.175c-3.033,1.079 -6.3,1.625 -9.817,1.625c-7.65,0 -14.108,-1.583 -19.379,-4.754c-5.263,-3.167 -9.575,-7.612 -12.917,-13.337c-3.35,-5.721 -5.783,-12.596 -7.304,-20.638c-1.513,-8.038 -2.267,-16.929 -2.267,-26.675c0,-6.492 0.396,-13.567 1.196,-21.217c0.796,-7.654 2.592,-14.729 5.383,-21.221c2.788,-6.496 6.854,-11.942 12.2,-16.35c5.342,-4.408 12.563,-6.613 21.658,-6.613c5.742,0 11.321,1.55 16.746,4.642c5.425,3.092 9.258,7.346 11.496,12.754l0.467,0l0,-55.429l20.104,0l0,165.587l0.001,0Zm-132.087,-124.308l20.104,0l0,124.308l-20.104,0l0,-124.308Zm0,-41.279l20.104,0l0,22.267l-20.104,0l0,-22.267Zm-43.55,77.692c0,-7.883 -1.317,-13.913 -3.942,-18.083c-2.637,-4.179 -7.621,-6.267 -14.958,-6.267c-1.596,0 -3.596,0.196 -5.983,0.583c-2.392,0.387 -4.671,1.196 -6.817,2.433c-2.158,1.237 -4.033,3.133 -5.629,5.683c-1.596,2.55 -2.392,5.992 -2.392,10.321c0,3.704 0.917,6.721 2.75,9.042c1.837,2.317 4.229,4.288 7.179,5.913c2.954,1.621 6.304,2.979 10.054,4.058c3.75,1.088 7.613,2.246 11.608,3.483c3.821,1.237 7.613,2.588 11.362,4.05c3.746,1.475 7.096,3.488 10.05,6.033c2.954,2.554 5.346,5.8 7.175,9.742c1.837,3.942 2.754,9.013 2.754,15.192c0,6.492 -1.037,12.175 -3.112,17.046c-2.075,4.867 -4.946,8.925 -8.613,12.171c-3.671,3.25 -8.054,5.683 -13.162,7.308c-5.104,1.625 -10.604,2.438 -16.508,2.438c-10.85,0 -19.262,-1.704 -25.246,-5.1c-5.979,-3.408 -10.371,-7.467 -13.158,-12.179c-2.792,-4.712 -4.425,-9.546 -4.904,-14.496c-0.483,-4.942 -0.717,-9.042 -0.717,-12.287l20.096,0c0,3.712 0.317,7.304 0.958,10.783c0.638,3.475 1.833,6.571 3.588,9.275c1.758,2.704 4.188,4.833 7.296,6.379c3.117,1.542 7.142,2.317 12.088,2.317c1.596,0 3.588,-0.229 5.983,-0.696c2.392,-0.462 4.746,-1.462 7.054,-3.017c2.317,-1.546 4.271,-3.633 5.862,-6.258c1.596,-2.625 2.392,-6.188 2.392,-10.667c0,-4.175 -0.912,-7.612 -2.75,-10.325c-1.829,-2.704 -4.229,-4.942 -7.179,-6.725c-2.946,-1.775 -6.296,-3.287 -10.046,-4.525c-3.75,-1.229 -7.542,-2.467 -11.371,-3.704c-3.821,-1.237 -7.654,-2.596 -11.483,-4.058c-3.834,-1.467 -7.213,-3.446 -10.167,-5.913c-2.954,-2.475 -5.342,-5.721 -7.183,-9.742c-1.829,-4.021 -2.746,-9.2 -2.746,-15.538c0,-5.725 1.071,-10.746 3.229,-15.079c2.154,-4.329 5.108,-7.921 8.846,-10.783c3.75,-2.862 8.1,-4.983 13.046,-6.379c4.946,-1.388 10.208,-2.088 15.796,-2.088c9.25,0 16.508,1.396 21.771,4.179c5.263,2.779 9.175,6.188 11.733,10.208c2.542,4.017 4.104,8.304 4.658,12.863c0.558,4.563 0.838,8.704 0.838,12.408l-20.1,0l-0,0.001Zm-125.871,-36.412l20.108,0l0,18.558l0.471,0c1.441,-2.942 2.991,-5.725 4.667,-8.35c1.675,-2.629 3.629,-4.95 5.866,-6.958c2.229,-2.013 4.742,-3.596 7.538,-4.754c2.792,-1.158 6.021,-1.742 9.688,-1.742c3.996,0 6.937,0.467 8.858,1.396l0,19.013c-0.958,-0.15 -2.196,-0.346 -3.708,-0.575c-1.521,-0.229 -3.875,-0.35 -7.063,-0.35c-2.55,0 -5.342,0.579 -8.375,1.737c-3.033,1.167 -5.867,2.938 -8.492,5.338c-2.637,2.392 -4.871,5.454 -6.7,9.158c-1.842,3.712 -2.75,8.117 -2.75,13.217l0,78.621l-20.108,0l0,-124.309Zm-43.55,49.175l0,-6.733c0,-3.396 -0.321,-6.912 -0.912,-10.546c-0.642,-3.633 -1.8,-6.921 -3.433,-9.863c-1.633,-2.933 -3.871,-5.329 -6.662,-7.187c-2.829,-1.854 -6.413,-2.783 -10.767,-2.783c-5.179,0 -9.246,1.354 -12.321,4.058c-3.033,2.704 -5.346,5.842 -6.896,9.396c-1.562,3.554 -2.596,7.15 -3.033,10.783c-0.483,3.633 -0.717,6.379 -0.717,8.229l0,4.646l44.742,0l-0.001,0Zm-45.467,15.296c0,4.796 0.121,9.975 0.367,15.546c0.238,5.567 1.113,10.746 2.667,15.538c1.596,4.792 3.954,8.775 7.179,11.942c3.192,3.171 7.859,4.754 13.921,4.754c4.708,0 8.458,-1.042 11.246,-3.129c2.829,-2.092 4.987,-4.633 6.458,-7.654c1.479,-3.012 2.471,-6.188 2.912,-9.508c0.479,-3.325 0.717,-6.146 0.717,-8.462l20.583,0c0,3.246 -0.6,7.375 -1.8,12.404c-1.191,5.021 -3.387,9.896 -6.575,14.608c-3.192,4.721 -7.583,8.742 -13.163,12.058c-5.587,3.329 -12.762,4.992 -21.537,4.992c-15.796,0 -27.158,-5.258 -34.104,-15.775c-6.938,-10.508 -10.4,-26.517 -10.4,-48.004c0,-7.733 0.512,-15.575 1.554,-23.538c1.034,-7.962 3.188,-15.15 6.458,-21.567c3.267,-6.417 7.896,-11.675 13.883,-15.771c5.975,-4.1 13.917,-6.15 23.804,-6.15c9.729,0 17.471,1.858 23.212,5.571c5.742,3.708 10.054,8.458 12.925,14.263c2.871,5.792 4.7,12.25 5.5,19.367c0.796,7.108 1.192,13.992 1.192,20.638l0,7.879l-67,0l0.001,-0.002Zm-125.15,-64.471l21.538,0l24.413,99.725l0.475,0l24.408,-99.725l21.542,0l-34.7,124.308l-22.975,0l-34.7,-124.308l-0.001,0Zm-36.85,0l20.104,0l0,124.308l-20.104,0l0,-124.308Zm0,-41.279l20.104,0l0,22.267l-20.104,0l0,-22.267Zm-111.988,41.279l19.146,0l0,14.617l0.479,0c2.708,-5.725 7.021,-10.129 12.917,-13.221c5.904,-3.092 11.962,-4.642 18.187,-4.642c8.458,0 14.954,1.354 19.504,4.058c4.546,2.713 7.896,6.071 10.05,10.092c2.158,4.017 3.392,8.308 3.708,12.871c0.317,4.567 0.479,8.696 0.479,12.408l0,88.125l-20.104,0l0,-85.808c0,-2.317 -0.113,-4.942 -0.358,-7.883c-0.233,-2.938 -0.992,-5.683 -2.267,-8.237c-1.279,-2.546 -3.196,-4.671 -5.742,-6.375c-2.554,-1.696 -6.071,-2.546 -10.533,-2.546c-2.708,0 -5.538,0.463 -8.492,1.388c-2.954,0.929 -5.708,2.396 -8.254,4.404c-2.554,2.008 -4.629,4.604 -6.225,7.771c-1.592,3.171 -2.387,6.996 -2.387,11.479l0,85.808l-20.109,0l0,-124.308l0.001,-0.001Zm-125.383,-41.279l21.538,0l0,116.425c0,12.212 2.154,21.221 6.458,27.012c4.313,5.804 11.646,8.704 22.017,8.704c10.971,0 18.504,-3.058 22.613,-9.167c4.063,-6.104 6.108,-14.954 6.108,-26.55l0,-116.425l21.525,0l0,116.425c0,15.921 -4.179,28.637 -12.554,38.154c-8.379,9.504 -20.938,14.258 -37.692,14.258c-17.387,0 -30.071,-4.408 -38.046,-13.221c-7.983,-8.813 -11.967,-21.871 -11.967,-39.192l0,-116.425l0,0.002Z" style="fill:#fff;fill-rule:nonzero;"/><path d="M5456.208,1819.846l23.417,0l-25.833,32.933l-14.375,0l16.792,-32.933l-0.001,0Zm-51.708,87.438c0,-14.071 3.334,-24.396 10.042,-30.962c6.708,-6.575 17.708,-9.863 33.042,-9.863c9.708,0 17.208,1.237 22.458,3.713c5.291,2.475 9.166,5.567 11.625,9.275c2.458,3.717 3.917,7.617 4.333,11.717c0.375,4.096 0.583,7.763 0.583,11.013l0,69.342c0,2.633 0.25,4.95 0.708,6.963c0.459,2.008 2.334,3.008 5.5,3.008c1.291,0 2.291,-0.108 3,-0.346c0.709,-0.229 1.334,-0.504 1.792,-0.812l0,13.912c-0.792,0.158 -2.334,0.388 -4.542,0.704c-2.25,0.308 -4.625,0.462 -7.167,0.462c-1.917,0 -3.875,-0.075 -5.875,-0.233c-2,-0.158 -3.916,-0.733 -5.75,-1.746c-1.833,-1 -3.333,-2.583 -4.542,-4.75c-1.208,-2.162 -1.875,-5.258 -2.042,-9.279l-0.458,0c-3.208,5.575 -7.625,9.942 -13.292,13.108c-5.667,3.171 -11.541,4.754 -17.583,4.754c-11.958,0 -20.792,-3.25 -26.458,-9.746c-5.667,-6.492 -8.5,-15.308 -8.5,-26.438c0,-8.812 1.959,-16.121 5.875,-21.913c3.917,-5.8 10,-9.933 18.292,-12.408l27.042,-7.879c3.667,-1.092 6.5,-2.208 8.5,-3.367c2,-1.158 3.416,-2.438 4.291,-3.825c0.917,-1.396 1.417,-3.017 1.583,-4.871c0.167,-1.858 0.25,-4.1 0.25,-6.733c0,-12.208 -6.875,-18.317 -20.584,-18.317c-5.583,0 -9.875,1.046 -12.833,3.129c-2.916,2.088 -5.083,4.525 -6.458,7.308c-1.334,2.779 -2.125,5.525 -2.375,8.233c-0.25,2.708 -0.375,4.6 -0.375,5.679l0,1.167l-20.084,0l0.002,0.001Zm61.958,19.013c-1.875,1.85 -4.291,3.404 -7.208,4.633c-2.916,1.237 -5.958,2.363 -9.208,3.367c-3.292,1.008 -6.417,2.013 -9.5,3.021c-3.042,1 -5.708,2.196 -7.917,3.592c-3.167,2.013 -5.541,4.438 -7.25,7.3c-1.625,2.862 -2.458,7 -2.458,12.408c0,6.496 1.333,11.671 3.916,15.542c2.584,3.867 7.292,5.796 14.083,5.796c3.292,0 6.5,-0.617 9.542,-1.854c3.125,-1.237 5.833,-2.942 8.208,-5.104c2.375,-2.162 4.25,-4.675 5.708,-7.537c1.375,-2.862 2.083,-5.913 2.083,-9.158l0,-32.004l0.001,-0.002Zm-129.667,-43.133c-4.583,0 -8.375,1.158 -11.375,3.475c-3,2.317 -5.375,5.567 -7.083,9.742c-1.792,4.171 -2.959,9.279 -3.708,15.308c-0.709,6.021 -1.042,12.754 -1.042,20.171c0,5.104 0.25,10.321 0.833,15.658c0.542,5.333 1.583,10.208 3.167,14.612c1.625,4.404 3.875,8.042 6.875,10.892c3.042,2.863 7.042,4.296 12.083,4.296c5.375,0 9.75,-1.158 13.167,-3.483c3.375,-2.317 6.041,-5.525 7.916,-9.621c1.917,-4.096 3.167,-8.925 3.792,-14.492c0.625,-5.571 0.958,-11.525 0.958,-17.863c0,-6.029 -0.333,-11.942 -0.958,-17.742c-0.625,-5.796 -1.875,-11.013 -3.792,-15.646c-1.875,-4.646 -4.5,-8.358 -7.792,-11.137c-3.333,-2.783 -7.667,-4.171 -13.042,-4.171l0.001,0.001Zm44.5,102.971c0,9.275 -1.083,17.121 -3.25,23.533c-2.125,6.421 -5.125,11.637 -8.958,15.658c-3.833,4.021 -8.416,6.921 -13.75,8.696c-5.333,1.779 -11.209,2.663 -17.583,2.663c-1.917,0 -5.084,-0.15 -9.458,-0.458c-4.375,-0.317 -8.875,-1.433 -13.417,-3.367c-4.542,-1.929 -8.708,-5.021 -12.417,-9.275c-3.75,-4.25 -6.041,-10.242 -6.833,-17.975l20.084,0c0.5,5.725 2.708,9.783 6.708,12.179c4,2.396 8.625,3.596 13.875,3.596c6.375,0 11.292,-1.05 14.708,-3.138c3.458,-2.079 5.917,-4.596 7.417,-7.537c1.542,-2.929 2.375,-5.992 2.542,-9.158c0.167,-3.171 0.209,-5.833 0.209,-8l0,-16.233l-0.459,0c-2.25,5.258 -6.041,9.35 -11.375,12.292c-5.333,2.938 -11.208,4.404 -17.583,4.404c-6.208,0 -11.5,-1.158 -15.916,-3.475c-4.375,-2.325 -8.042,-5.333 -11,-9.05c-2.959,-3.704 -5.25,-7.842 -6.917,-12.404c-1.708,-4.558 -2.958,-9.163 -3.834,-13.796c-0.917,-4.646 -1.458,-9.008 -1.708,-13.108c-0.209,-4.092 -0.334,-7.538 -0.334,-10.321c0,-8.346 0.625,-16.467 1.917,-24.35c1.25,-7.879 3.542,-14.879 6.792,-20.988c3.291,-6.104 7.583,-10.975 12.917,-14.608c5.375,-3.633 12.083,-5.454 20.25,-5.454c3.5,0 6.792,0.546 9.917,1.625c3.125,1.088 5.875,2.475 8.25,4.175c2.416,1.704 4.458,3.713 6.125,6.029c1.667,2.321 2.834,4.717 3.459,7.192l0.458,0l0,-15.775l19.167,0l0,116.429l-0.003,-0.001Zm-195.25,-116.429l19.125,0l0,14.617l0.5,0c2.708,-5.725 7,-10.129 12.917,-13.221c5.875,-3.092 11.958,-4.642 18.167,-4.642c8.458,0 14.959,1.354 19.5,4.058c4.542,2.713 7.917,6.071 10.042,10.092c2.167,4.017 3.416,8.308 3.708,12.871c0.333,4.567 0.5,8.696 0.5,12.408l0,88.125l-20.125,0l0,-85.808c0,-2.317 -0.083,-4.942 -0.333,-7.883c-0.25,-2.938 -1,-5.683 -2.292,-8.237c-1.25,-2.546 -3.167,-4.671 -5.708,-6.375c-2.583,-1.696 -6.083,-2.546 -10.541,-2.546c-2.708,0 -5.542,0.463 -8.5,1.388c-2.958,0.929 -5.708,2.396 -8.25,4.404c-2.542,2.008 -4.625,4.604 -6.25,7.771c-1.583,3.171 -2.375,6.996 -2.375,11.479l0,85.808l-20.083,0l0,-124.308l-0.002,-0.001Zm-47.625,0l20.084,0l0,124.308l-20.084,0l0,-124.308Zm0,-41.279l20.084,0l0,22.267l-20.084,0l0,-22.267Zm-72.041,41.279l20.125,0l0,18.558l0.458,0c1.417,-2.942 3,-5.725 4.667,-8.35c1.667,-2.629 3.625,-4.95 5.875,-6.958c2.208,-2.013 4.708,-3.596 7.541,-4.754c2.792,-1.158 6,-1.742 9.667,-1.742c4,0 6.958,0.467 8.875,1.396l0,19.013c-0.958,-0.15 -2.208,-0.346 -3.708,-0.575c-1.542,-0.229 -3.875,-0.35 -7.084,-0.35c-2.542,0 -5.333,0.579 -8.375,1.737c-3.042,1.167 -5.875,2.938 -8.5,5.338c-2.625,2.392 -4.875,5.454 -6.708,9.158c-1.834,3.712 -2.708,8.117 -2.708,13.217l0,78.621l-20.125,0l-0,-124.309Zm-109.334,37.579c0,-14.071 3.334,-24.396 10.042,-30.962c6.667,-6.575 17.708,-9.863 33,-9.863c9.75,0 17.25,1.237 22.5,3.713c5.25,2.475 9.125,5.567 11.625,9.275c2.459,3.717 3.875,7.617 4.292,11.717c0.417,4.096 0.583,7.763 0.583,11.013l0,69.342c0,2.633 0.25,4.95 0.709,6.963c0.5,2.008 2.333,3.008 5.541,3.008c1.25,0 2.25,-0.108 2.958,-0.346c0.75,-0.229 1.334,-0.504 1.792,-0.812l0,13.912c-0.792,0.158 -2.292,0.388 -4.542,0.704c-2.208,0.308 -4.625,0.462 -7.167,0.462c-1.917,0 -3.875,-0.075 -5.875,-0.233c-1.959,-0.158 -3.875,-0.733 -5.708,-1.746c-1.875,-1 -3.375,-2.583 -4.584,-4.75c-1.166,-2.162 -1.875,-5.258 -2,-9.279l-0.5,0c-3.167,5.575 -7.625,9.942 -13.291,13.108c-5.625,3.171 -11.5,4.754 -17.584,4.754c-11.958,0 -20.75,-3.25 -26.417,-9.746c-5.667,-6.492 -8.5,-15.308 -8.5,-26.438c0,-8.812 1.959,-16.121 5.875,-21.913c3.875,-5.8 10,-9.933 18.292,-12.408l27.042,-7.879c3.667,-1.092 6.5,-2.208 8.5,-3.367c2,-1.158 3.416,-2.438 4.292,-3.825c0.875,-1.396 1.417,-3.017 1.542,-4.871c0.166,-1.858 0.25,-4.1 0.25,-6.733c0,-12.208 -6.833,-18.317 -20.583,-18.317c-5.584,0 -9.833,1.046 -12.792,3.129c-2.958,2.088 -5.125,4.525 -6.458,7.308c-1.375,2.779 -2.167,5.525 -2.417,8.233c-0.208,2.708 -0.333,4.6 -0.333,5.679l0,1.167l-20.084,0l-0,0.001Zm61.959,19.013c-1.875,1.85 -4.333,3.404 -7.209,4.633c-2.916,1.237 -6,2.363 -9.25,3.367c-3.25,1.008 -6.417,2.013 -9.458,3.021c-3.083,1 -5.708,2.196 -7.958,3.592c-3.125,2.013 -5.542,4.438 -7.209,7.3c-1.625,2.862 -2.458,7 -2.458,12.408c0,6.496 1.292,11.671 3.917,15.542c2.583,3.867 7.292,5.796 14.042,5.796c3.333,0 6.5,-0.617 9.583,-1.854c3.125,-1.237 5.833,-2.942 8.167,-5.104c2.416,-2.162 4.291,-4.675 5.708,-7.537c1.417,-2.862 2.125,-5.913 2.125,-9.158l-0,-32.006Z" style="fill:#fff;fill-rule:nonzero;"/><path d="M2250.183,1575.571l-477.033,-768.65l470.521,-806.788l-258.533,-0.096l-468.275,808.454l478.608,767.221l254.713,-0.142l-0.001,0.001Z" style="fill:#fff;fill-rule:nonzero;"/><path d="M1517.479,915.921l379.483,606.083l-727.988,0l348.504,-606.083l0.001,0Z" style="fill:#fff;fill-rule:nonzero;"/><path d="M1387.525,602.504l-436.929,756.379l-950.596,0.65l120.804,215.017l956.621,0.179l440.154,-765.496l-130.054,-206.729Z" style="fill:#fff;fill-rule:nonzero;"/><path d="M956.067,1786.312l910.133,-0.112l487.988,784.633l130.317,-213.458l-489.242,-782.625l-917.696,0l-121.5,211.562Z" style="fill:#fff;fill-rule:nonzero;"/><path d="M819.933,881.654l174.858,302.575l-75.733,123.392l-152.446,-1.925l-173.804,-300.754l227.125,-123.288Z" style="fill:#fff;"/><path d="M2265.412,927.108l-357.833,-0.275l-73.971,-124.392l76.329,-127.904l355.679,0.271l-0.204,252.3Z" style="fill:#fff;"/><path d="M1513.075,2142.463l174.354,-302.854l148.121,-2.108l78.158,126.867l-173.3,301.025l-227.333,-122.929l0,-0.001Z" style="fill:#fff;"/></g></svg>
